<svg width="24" height="24" viewBox="0 0 24 24" fill="none" xmlns="http://www.w3.org/2000/svg">
<path d="M11 21.5V5C11 4.33333 11.1 3 9.49996 3C7.92261 3 7.58928 4.86603 8.49996 5.6547M11 21.5C9.21506 21.5 8.62486 19.9071 9.22936 18.8536M7.86397 4.41336C7.41059 4.3306 6.94186 4.37846 6.4993 4.55269C6.05674 4.72692 5.65401 5.02215 5.32679 5.41222C4.99957 5.80229 4.75796 6.27516 4.62336 6.78895C4.48875 7.30274 4.46531 7.84159 4.55511 8.35776C4.64491 8.87393 4.84518 9.3515 5.13817 9.74817C5.43117 10.1448 5.80785 10.4483 6.23485 10.6318M6.21501 17.0344C6.06653 17.322 5.99267 17.6536 5.99997 18C6.00727 18.3463 6.09551 18.6967 6.25687 19.0201C6.41823 19.3434 6.64773 19.6298 6.92505 19.8538C7.20236 20.0778 7.51893 20.2326 7.84671 20.3043C8.17449 20.3761 8.50336 20.3627 8.8042 20.2652M5.15091 9.97724C4.86465 10.0096 4.59244 10.121 4.35839 10.3016C4.12435 10.4823 3.93569 10.7265 3.80913 11.0127C3.68257 11.2989 3.62201 11.6183 3.63282 11.9425C3.64364 12.2667 3.72548 12.5858 3.87112 12.8714C4.01675 13.1571 4.22167 13.4005 4.46773 13.5801C4.71379 13.7598 4.9934 13.8701 5.28178 13.9013M4.73222 13.842C4.44999 14.0354 4.21986 14.2954 4.06223 14.5992C3.90459 14.9029 3.8243 15.2409 3.82848 15.5832C3.83266 15.9256 3.92117 16.2617 4.08617 16.5618C4.25118 16.8619 4.48759 17.1168 4.77446 17.3038C5.06132 17.4909 5.3898 17.6043 5.73078 17.6341" stroke="#1F3B3F" stroke-linecap="round"/>
<path d="M7.63554 12.3097C7.93474 12.3209 8.23175 12.2475 8.50024 12.096C8.76873 11.9445 9.00043 11.7196 9.1748 11.4412C9.34918 11.1628 9.46085 10.8395 9.49992 10.4999C9.539 10.1604 9.50427 9.81501 9.39882 9.49446C9.29337 9.17391 9.12045 8.88806 8.89537 8.66223" stroke="#1F3B3F" stroke-linecap="round" stroke-linejoin="round"/>
<path d="M10.9561 14.9438C10.6445 14.9442 10.3447 15.0155 10.0833 15.1514C9.82189 15.2874 9.60695 15.4838 9.4575 15.7233C9.30805 15.9628 9.2287 16.2379 9.22649 16.5244" stroke="#1F3B3F" stroke-linecap="round" stroke-linejoin="round"/>
<path d="M6.55658 14.3706C6.72705 14.3687 6.8903 14.4103 7.03188 14.4917C7.17346 14.5731 7.289 14.6919 7.36826 14.8374C7.44752 14.983 7.48805 15.1509 7.48627 15.3262" stroke="#1F3B3F" stroke-linecap="round" stroke-linejoin="round"/>
<path d="M7.49997 6.99996C7.37709 6.96205 7.24573 6.95948 7.11751 6.99248C6.98929 7.02548 6.86818 7.09302 6.76489 7.18913C6.66161 7.28524 6.57935 7.40694 6.52539 7.54347C6.47144 7.67999 6.44746 7.82712 6.45557 7.97181C6.46369 8.11651 6.50365 8.25431 6.57191 8.37301" stroke="#1F3B3F" stroke-linecap="round" stroke-linejoin="round"/>
<path d="M13.0013 21.5V5C13.0013 4.33333 12.9013 3 14.5013 3C16.0611 3 16.4044 4.82483 15.5311 5.62805M13.0013 21.5C14.7862 21.5 15.3764 19.9071 14.7719 18.8536M16.1372 4.41336C16.5906 4.3306 17.0594 4.37846 17.5019 4.55269C17.9445 4.72692 18.3472 5.02215 18.6744 5.41222C19.0016 5.80229 19.2433 6.27516 19.3779 6.78895C19.5125 7.30274 19.5359 7.84159 19.4461 8.35776C19.3563 8.87393 19.156 9.3515 18.863 9.74817C18.5701 10.1448 18.1934 10.4483 17.7664 10.6318M17.7862 17.0344C17.9347 17.322 18.0086 17.6536 18.0013 18C17.994 18.3463 17.9057 18.6967 17.7444 19.0201C17.583 19.3434 17.3535 19.6298 17.0762 19.8538C16.7989 20.0778 16.4823 20.2326 16.1545 20.3043C15.8268 20.3761 15.4979 20.3627 15.1971 20.2652M18.8503 9.97724C19.1366 10.0096 19.4088 10.121 19.6428 10.3016C19.8769 10.4823 20.0655 10.7265 20.1921 11.0127C20.3187 11.2989 20.3792 11.6183 20.3684 11.9425C20.3576 12.2667 20.2757 12.5858 20.1301 12.8714C19.9845 13.1571 19.7795 13.4005 19.5335 13.5801C19.2874 13.7598 19.0078 13.8701 18.7194 13.9013M19.269 13.842C19.5512 14.0354 19.7814 14.2954 19.939 14.5992C20.0966 14.9029 20.1769 15.2409 20.1727 15.5832C20.1686 15.9256 20.0801 16.2617 19.915 16.5618C19.75 16.8619 19.5136 17.1168 19.2268 17.3038C18.9399 17.4909 18.6114 17.6043 18.2704 17.6341" stroke="#1F3B3F" stroke-linecap="round"/>
<path d="M16.8883 12.0658C16.5952 12.127 16.2901 12.1044 16 12C15.7099 11.8956 15.4438 11.7126 15.2253 11.4674C15.0068 11.2221 14.8426 10.9221 14.7472 10.5938C14.6518 10.2656 14.6282 9.91929 14.6785 9.58561" stroke="#1F3B3F" stroke-linecap="round" stroke-linejoin="round"/>
<path d="M15.3949 16.6998C15.7062 16.6866 16.0028 16.603 16.2584 16.4564C16.5139 16.3097 16.7206 16.1046 16.86 15.8592C16.9995 15.6137 17.0674 15.3355 17.0578 15.0492" stroke="#1F3B3F" stroke-linecap="round" stroke-linejoin="round"/>
<path d="M14.8345 13.5734C14.7717 13.7319 14.7522 13.8993 14.7777 14.0606C14.8031 14.222 14.8727 14.3723 14.9803 14.4984C15.0879 14.6244 15.2302 14.7223 15.3945 14.7833" stroke="#1F3B3F" stroke-linecap="round" stroke-linejoin="round"/>
<path d="M16.6948 7.35418C16.8126 7.40579 16.9137 7.48968 16.9892 7.59845C17.0647 7.70721 17.1122 7.83749 17.1276 7.97773C17.143 8.11797 17.1257 8.26385 17.0773 8.40245C17.029 8.54105 16.951 8.66809 16.8503 8.77231C16.7496 8.87654 16.6293 8.95474 16.5 8.99998" stroke="#1F3B3F" stroke-linecap="round" stroke-linejoin="round"/>
</svg>
