<svg width="55" height="55" viewBox="0 0 55 55" fill="none" xmlns="http://www.w3.org/2000/svg">
<path fill-rule="evenodd" clip-rule="evenodd" d="M27.0758 51.8953C40.7833 51.8953 51.8953 40.7833 51.8953 27.0758C51.8953 13.3684 40.7833 2.25632 27.0758 2.25632C13.3684 2.25632 2.25632 13.3684 2.25632 27.0758C2.25632 40.7833 13.3684 51.8953 27.0758 51.8953ZM27.0758 54.1516C42.0294 54.1516 54.1516 42.0294 54.1516 27.0758C54.1516 12.1223 42.0294 0 27.0758 0C12.1223 0 0 12.1223 0 27.0758C0 42.0294 12.1223 54.1516 27.0758 54.1516Z" fill="#1F3336"/>
<path d="M23.8562 34.2218C23.7175 32.4184 23.7175 30.6149 23.5788 28.6726C23.5788 27.7015 23.1626 27.0079 22.0527 27.0079C21.3591 27.0079 20.6654 27.1466 20.5267 26.1755C20.388 24.9269 20.1105 23.5396 20.5267 22.291C20.5267 22.1523 21.0816 21.8749 21.3591 21.8749C23.44 22.2911 23.8562 21.1812 23.8562 19.5164C23.8562 15.0771 27.6019 12.7186 32.4575 12.9961C33.8448 13.1348 33.8448 14.2447 33.8448 15.2158C33.7061 16.1869 34.261 17.5742 32.4575 17.5742C30.9315 17.4355 29.8216 17.9904 29.8216 19.7939C29.8216 21.0425 29.9604 22.0136 31.4864 22.1523C33.7061 22.291 33.2899 23.8171 33.2899 25.3431C33.4286 27.0079 32.5962 27.5628 31.0702 27.5628C29.5442 27.5628 29.2667 28.3952 29.2667 29.7825C29.2667 32.8345 29.2667 35.7479 29.128 38.7999C28.9892 40.7421 28.573 40.8809 25.9372 40.7421C24.1337 40.7421 23.8562 39.9098 23.995 38.3838C23.7175 37.1352 23.7175 35.7479 23.8562 34.2218Z" fill="#1F3336"/>
</svg>
