<svg width="55" height="55" viewBox="0 0 55 55" fill="none" xmlns="http://www.w3.org/2000/svg">
<path fill-rule="evenodd" clip-rule="evenodd" d="M27.0758 51.8953C40.7833 51.8953 51.8953 40.7833 51.8953 27.0758C51.8953 13.3684 40.7833 2.25632 27.0758 2.25632C13.3684 2.25632 2.25632 13.3684 2.25632 27.0758C2.25632 40.7833 13.3684 51.8953 27.0758 51.8953ZM27.0758 54.1516C42.0294 54.1516 54.1516 42.0294 54.1516 27.0758C54.1516 12.1223 42.0294 0 27.0758 0C12.1223 0 0 12.1223 0 27.0758C0 42.0294 12.1223 54.1516 27.0758 54.1516Z" fill="#1F3336"/>
<path d="M30.5586 14.0097C29.7417 14 28.8419 14 27.8532 14H25.0901C22.6129 14 20.6712 14 19.1306 14.165C17.5585 14.3333 16.2847 14.6831 15.1971 15.4642C14.5386 15.9371 13.9596 16.5095 13.4812 17.1603C13.2727 17.4441 13.0927 17.7431 12.938 18.0606C12.4386 19.0851 12.216 20.2734 12.1076 21.6921C12 23.0998 12 24.8277 12 26.9613V27.0603C12 29.509 12 31.4285 12.1669 32.9514C12.3372 34.5054 12.691 35.7646 13.4812 36.8397C13.9596 37.4905 14.5386 38.0629 15.1971 38.5358C16.2847 39.3169 17.5585 39.6667 19.1306 39.835C20.6711 40 22.6129 40 25.09 40H27.9099C30.387 40 32.3289 40 33.8694 39.835C35.4415 39.6667 36.7153 39.3169 37.8029 38.5358C38.4614 38.0629 39.0404 37.4905 39.5188 36.8397C40.309 35.7646 40.6628 34.5054 40.8331 32.9514C41 31.4285 41 29.5091 41 27.0605V26.9955C41 26.0043 41 25.1035 40.9898 24.2868C40.9829 23.7346 40.5244 23.2924 39.9657 23.2992C39.4071 23.3061 38.9598 23.7593 38.9667 24.3115C38.9767 25.1147 38.9767 26.0037 38.9767 27C38.9767 29.5221 38.9754 31.3333 38.8216 32.7359C38.67 34.1198 38.3798 34.9868 37.8819 35.6641C37.5283 36.1452 37.1004 36.5682 36.6137 36.9178C35.9285 37.4099 35.0514 37.6967 33.6515 37.8467C32.2326 37.9986 30.4003 38 27.8488 38H25.1512C22.5997 38 20.7674 37.9986 19.3485 37.8467C17.9486 37.6967 17.0715 37.4099 16.3863 36.9178C15.8996 36.5682 15.4717 36.1452 15.1181 35.6641C14.6202 34.9868 14.3301 34.1198 14.1784 32.7359C14.0246 31.3333 14.0233 29.5221 14.0233 27C14.0233 24.8198 14.0239 23.1666 14.1251 21.8427C14.1682 21.2785 14.2287 20.7915 14.3102 20.3645L16.3017 22.3331C18.5033 24.5095 20.2287 26.2151 21.756 27.3669C23.3192 28.5459 24.7931 29.2386 26.5 29.2386C29.1045 29.2386 31.2037 27.6178 33.9442 25.0211C34.3476 24.6389 34.3611 24.0059 33.9745 23.6072C33.5879 23.2085 32.9475 23.1951 32.5442 23.5773C29.7413 26.2331 28.1903 27.2386 26.5 27.2386C25.4134 27.2386 24.3665 26.8201 22.9832 25.7769C21.5767 24.716 19.9459 23.107 17.6776 20.8648L15.1186 18.3352C15.4721 17.8544 15.8999 17.4316 16.3863 17.0822C17.0715 16.5901 17.9486 16.3033 19.3485 16.1533C20.7674 16.0014 22.5997 16 25.1512 16H27.8488C28.8425 16 29.7308 16 30.5344 16.0095C31.0931 16.0162 31.5514 15.5738 31.5581 15.0216C31.5648 14.4693 31.1173 14.0163 30.5586 14.0097Z" fill="#1F3336"/>
<path fill-rule="evenodd" clip-rule="evenodd" d="M37.2907 14C35.2421 14 33.5814 15.6416 33.5814 17.6667C33.5814 19.6917 35.2421 21.3333 37.2907 21.3333C39.3393 21.3333 41 19.6917 41 17.6667C41 15.6416 39.3393 14 37.2907 14ZM35.6047 17.6667C35.6047 16.7462 36.3595 16 37.2907 16C38.2219 16 38.9767 16.7462 38.9767 17.6667C38.9767 18.5871 38.2219 19.3333 37.2907 19.3333C36.3595 19.3333 35.6047 18.5871 35.6047 17.6667Z" fill="#1F3336"/>
</svg>
