<svg width="55" height="55" viewBox="0 0 55 55" fill="none" xmlns="http://www.w3.org/2000/svg">
<path fill-rule="evenodd" clip-rule="evenodd" d="M27.0758 51.8953C40.7833 51.8953 51.8953 40.7833 51.8953 27.0758C51.8953 13.3684 40.7833 2.25632 27.0758 2.25632C13.3684 2.25632 2.25632 13.3684 2.25632 27.0758C2.25632 40.7833 13.3684 51.8953 27.0758 51.8953ZM27.0758 54.1516C42.0294 54.1516 54.1516 42.0294 54.1516 27.0758C54.1516 12.1223 42.0294 0 27.0758 0C12.1223 0 0 12.1223 0 27.0758C0 42.0294 12.1223 54.1516 27.0758 54.1516Z" fill="#1F3336"/>
<path d="M26.8844 40.0695C24.5072 40.0695 22.13 40.2118 19.8926 40.0695C16.6764 39.7848 15.4178 38.6462 14.8585 35.2304C14.1593 31.2452 13.8796 27.4024 14.2992 23.4172C14.439 21.9939 14.5788 20.4283 14.8585 19.005C15.278 16.0161 16.5365 14.7352 19.4731 14.0236C20.7316 13.7389 21.8503 13.5966 23.1088 13.7389C25.7657 13.8812 28.4226 13.8812 31.0794 13.5965C32.338 13.4542 33.4566 13.5966 34.7151 13.7389C37.0924 14.0235 38.7704 15.3045 39.0501 17.7241C39.8891 23.7018 40.5883 29.6796 39.4696 35.6573C38.9102 38.5039 37.6517 39.6425 34.855 40.2118C32.3379 40.3542 29.6811 40.2118 26.8844 40.0695ZM27.4437 20.9976C24.2275 20.8553 21.4308 23.2749 21.1511 26.2637C20.8714 29.9643 23.1088 32.3838 26.8844 32.6685C29.8209 32.8108 32.6176 30.2489 32.8973 26.9754C33.177 23.9865 30.6599 21.1399 27.4437 20.9976ZM36.1135 18.7204C35.9737 17.8664 35.5542 17.2971 34.5753 17.2971C33.4566 17.2971 32.8973 18.0087 32.8973 19.005C32.8973 20.0013 33.4566 20.7129 34.5753 20.7129C35.694 20.5706 36.1135 19.859 36.1135 18.7204Z" fill="#1F3336"/>
</svg>
