<svg width="51" height="34" viewBox="0 0 51 34" fill="none" xmlns="http://www.w3.org/2000/svg">
<g clip-path="url(#clip0_74_24)">
<path fill-rule="evenodd" clip-rule="evenodd" d="M6.36726 0H15.9388C19.7224 0.150476 23.8343 2.88591 23.9484 6.98638V21.6191C17.5725 20.0058 14.4116 16.1375 15.1573 9.52727C9.3085 8.14719 6.27269 5.03771 6.36726 0Z" fill="#F7F7F2"/>
<mask id="mask0_74_24" style="mask-type:luminance" maskUnits="userSpaceOnUse" x="6" y="0" width="18" height="22">
<path d="M6.36726 0H15.9388C19.7224 0.150476 23.8343 2.88591 23.9484 6.98638V21.6191C17.5725 20.0058 14.4116 16.1375 15.1573 9.52727C9.3085 8.14719 6.27269 5.03771 6.36726 0Z" fill="white"/>
</mask>
<g mask="url(#mask0_74_24)">
<path fill-rule="evenodd" clip-rule="evenodd" d="M15.1519 9.57992C19.592 10.4753 22.8104 13.7331 24.5147 19.3157C25.3886 9.98406 26.2625 0.653486 27.1364 -8.67816C18.1975 -8.21814 9.25742 -7.75811 0.318481 -7.29808C2.41192 -1.05441 4.50535 5.18818 6.59878 11.4319C8.87373 10.8514 12.8769 10.1593 15.1519 9.57885" fill="white"/>
<path fill-rule="evenodd" clip-rule="evenodd" d="M5.45969 0.635201C15.2899 1.64876 22.5398 6.80041 24.4506 15.9741V-3.52008C17.8703 -3.34596 11.29 -3.17291 4.70862 -2.99879C4.95861 -1.93364 5.20969 -0.428878 5.45969 0.636275V0.635201Z" fill="white"/>
<path d="M5.45969 0.635201C15.2899 1.64876 22.5398 6.80041 24.4506 15.9741V-3.52008C17.8703 -3.34596 11.29 -3.17291 4.70862 -2.99879C4.95861 -1.93364 5.20969 -0.428878 5.45969 0.636275V0.635201Z" stroke="#1F7B85" stroke-width="0.22" stroke-linecap="round" stroke-linejoin="round"/>
</g>
<path fill-rule="evenodd" clip-rule="evenodd" d="M43.0807 0H33.5091C29.7255 0.150476 25.6136 2.88591 25.4995 6.98638V21.6191C31.8755 20.0058 35.0363 16.1375 34.2895 9.52727C40.1383 8.14719 43.1752 5.03771 43.0796 0" fill="#F7F7F2"/>
<mask id="mask1_74_24" style="mask-type:luminance" maskUnits="userSpaceOnUse" x="25" y="0" width="19" height="22">
<path d="M43.0807 0H33.5091C29.7255 0.150476 25.6136 2.88591 25.4995 6.98638V21.6191C31.8755 20.0058 35.0363 16.1375 34.2895 9.52727C40.1383 8.14719 43.1752 5.03771 43.0796 0" fill="white"/>
</mask>
<g mask="url(#mask1_74_24)">
<path fill-rule="evenodd" clip-rule="evenodd" d="M34.296 9.57992C29.8559 10.4753 26.6375 13.7331 24.9332 19.3157C24.0593 9.98406 23.1854 0.653486 22.3115 -8.67816C31.2505 -8.21814 40.1905 -7.75811 49.1294 -7.29808C47.036 -1.05441 44.9426 5.18926 42.8491 11.4329C40.5742 10.8525 36.571 10.1603 34.296 9.57992Z" fill="white"/>
<path fill-rule="evenodd" clip-rule="evenodd" d="M43.9893 0.635201C34.1591 1.64876 26.9092 6.80041 24.9984 15.9741V-3.52008C31.5787 -3.34596 38.159 -3.17291 44.7404 -2.99879C44.4904 -1.93364 44.2393 -0.428878 43.9893 0.636275V0.635201Z" fill="white"/>
<path d="M43.9893 0.635201C34.1591 1.64876 26.9092 6.80041 24.9984 15.9741V-3.52008C31.5787 -3.34596 38.159 -3.17291 44.7404 -2.99879C44.4904 -1.93364 44.2393 -0.428878 43.9893 0.636275V0.635201Z" stroke="#1F7B85" stroke-width="0.22" stroke-linecap="round" stroke-linejoin="round"/>
</g>
<path d="M44.3393 33.784V25.6228H46.1055V29.3191L48.8566 25.6228H50.8957L47.9425 29.3406L51 33.785H48.8761L46.1055 29.5137V33.785H44.3393V33.784ZM37.0699 32.448C37.8177 32.448 38.4361 32.1889 38.922 31.6698C39.4089 31.1517 39.6535 30.5036 39.6535 29.7211C39.6535 28.9386 39.4068 28.2981 38.9144 27.7714C38.422 27.2447 37.8057 26.9803 37.0699 26.9803C36.334 26.9803 35.7014 27.2426 35.209 27.7692C34.7167 28.2948 34.4699 28.9451 34.4699 29.7211C34.4699 30.4971 34.7123 31.1614 35.1971 31.6752C35.6819 32.1911 36.3079 32.448 37.0688 32.448H37.0699ZM41.4654 29.72C41.4654 30.3037 41.3556 30.8561 41.1361 31.3753C40.9154 31.8966 40.5991 32.3534 40.1861 32.7468C39.7589 33.152 39.2763 33.4626 38.7372 33.6776C38.2003 33.8925 37.6438 34.0011 37.0688 34.0011C36.5666 34.0011 36.0721 33.9172 35.5905 33.7485C35.1079 33.5798 34.6656 33.3358 34.2634 33.0198C33.7438 32.6113 33.3471 32.1234 33.071 31.5548C32.796 30.9862 32.6569 30.3757 32.6569 29.7211C32.6569 29.1332 32.7667 28.5829 32.9841 28.068C33.2015 27.5543 33.521 27.0964 33.9428 26.6944C34.3558 26.2967 34.8351 25.9882 35.3819 25.7701C35.9286 25.5519 36.4916 25.4412 37.0699 25.4412C37.6481 25.4412 38.2046 25.5519 38.747 25.7701C39.2894 25.9893 39.7687 26.2978 40.1861 26.6944C40.6035 27.0964 40.9209 27.5543 41.1383 28.0723C41.3556 28.5883 41.4654 29.1375 41.4654 29.7222V29.72ZM26.1994 33.784L23.1517 25.6228H25.1006L26.7092 30.7121C26.7375 30.8164 26.7864 31.0109 26.8494 31.2925C26.9125 31.5763 26.982 31.8976 27.0527 32.2566C27.1005 31.9062 27.1549 31.5967 27.2146 31.3258C27.2722 31.0539 27.3299 30.8314 27.3853 30.6562L29.0146 25.6217H30.9417L27.8711 33.7829H26.1973L26.1994 33.784ZM21.443 33.784H14.5193L18.7909 27.0147H14.9584V25.6217H21.6191L17.3485 32.3792H21.4441V33.7829L21.443 33.784ZM7.43245 33.784V25.6228H12.2921V27.0953H9.19872V28.7731H12.2921V30.2575H9.19872V32.3007H12.2921V33.785H7.43245V33.784ZM4.27056 25.6228V30.9937C4.27056 31.6085 4.24556 32.0567 4.19774 32.3448C4.14991 32.6318 4.06839 32.8757 3.95535 33.0757C3.79014 33.3798 3.54775 33.612 3.22602 33.7678C2.90429 33.9237 2.51408 34.0022 2.05648 34.0022C1.47714 34.0022 1.0152 33.8592 0.667377 33.5722C0.319558 33.2853 0.097824 32.865 0 32.3115L1.28149 31.7085C1.30975 31.9654 1.37823 32.1588 1.48149 32.2889C1.58584 32.42 1.72605 32.4845 1.90648 32.4845C2.13148 32.4845 2.28908 32.4028 2.37604 32.2405C2.46299 32.0793 2.50538 31.7171 2.50538 31.156V25.6239H4.27165L4.27056 25.6228Z" fill="white"/>
</g>
<defs>
<clipPath id="clip0_74_24">
<rect width="51" height="34" fill="white"/>
</clipPath>
</defs>
</svg>
