<svg width="19" height="18" viewBox="0 0 19 18" fill="none" xmlns="http://www.w3.org/2000/svg">
<path d="M18.0682 8.5C18.3487 7.6055 18.5 6.70859 18.5 5.83876C18.5 2.88764 16.259 0.5 13.496 0.5C11.867 0.5 10.409 1.34045 9.5 2.63933C8.591 1.34045 7.142 0.5 5.504 0.5C2.741 0.5 0.5 2.88764 0.5 5.83876C0.5 6.93662 0.672394 7.99502 0.990339 9M18.0682 8.5C16.9063 12.205 13.5276 15.8686 9.5 17.3955C5.53801 15.8935 2.20391 12.8359 0.990339 9M18.0682 8.5H15.6036C15.5372 8.5 15.4737 8.47366 15.4268 8.42678L14.2453 7.24526C14.1246 7.1246 13.9212 7.15761 13.8449 7.31024L12.6551 9.68976C12.5788 9.84239 12.3754 9.8754 12.2547 9.75474L11.2087 8.70868C11.0994 8.59944 10.9183 8.61444 10.8285 8.74014L8.82233 11.5487C8.69715 11.724 8.42373 11.6695 8.3753 11.4596L7.14626 6.13378C7.09477 5.91066 6.79533 5.86841 6.68412 6.06858L4.68723 9.66299C4.59926 9.82133 4.37736 9.83648 4.26869 9.69158L3.17295 8.2306C3.08167 8.10889 2.90375 8.09625 2.79617 8.20382L2.07322 8.92678C2.02634 8.97366 1.96275 9 1.89645 9H1.44822H0.990339" stroke="#22202A" stroke-linecap="round" stroke-linejoin="round"/>
</svg>
