<svg width="55" height="55" viewBox="0 0 55 55" fill="none" xmlns="http://www.w3.org/2000/svg">
<path fill-rule="evenodd" clip-rule="evenodd" d="M27.0758 51.8953C40.7833 51.8953 51.8953 40.7833 51.8953 27.0758C51.8953 13.3684 40.7833 2.25632 27.0758 2.25632C13.3684 2.25632 2.25632 13.3684 2.25632 27.0758C2.25632 40.7833 13.3684 51.8953 27.0758 51.8953ZM27.0758 54.1516C42.0294 54.1516 54.1516 42.0294 54.1516 27.0758C54.1516 12.1223 42.0294 0 27.0758 0C12.1223 0 0 12.1223 0 27.0758C0 42.0294 12.1223 54.1516 27.0758 54.1516Z" fill="#1F3336"/>
<path d="M28.0311 40.3856C26.7152 40.254 25.2678 40.3856 23.952 39.8592C21.8466 38.9382 19.7413 38.9381 17.636 40.254C17.1096 40.5171 16.4517 40.9119 15.9254 40.254C15.5306 39.8592 15.7938 39.2013 15.9254 38.8065C17.1096 36.1749 16.4517 33.938 15.3991 31.3063C13.2937 26.1746 13.5569 21.1744 17.636 16.9637C21.7151 12.8846 26.8468 12.2267 32.2417 13.6741C33.9523 14.2005 35.3997 15.2531 36.7156 16.5689C43.0316 23.2797 43.2948 34.5959 33.5576 39.3329C31.7154 40.254 29.8732 40.254 28.0311 40.3856ZM17.636 38.675C20.3992 36.5697 23.0309 38.0171 25.6626 38.4118C29.4785 38.9381 33.1628 38.8066 36.3208 35.9117C39.6104 32.7537 40.5315 27.3588 38.9525 23.0165C36.9788 17.6216 32.5049 14.7268 27.5047 14.7268C21.7151 14.7268 15.6622 19.4638 15.9254 25.1219C16.057 27.3588 16.1886 29.5957 17.3728 31.5695C18.6886 33.6748 18.9518 35.7802 17.636 38.675Z" fill="#1F3336"/>
<path d="M28.8202 29.7271C28.9518 29.5955 29.215 29.4639 29.3466 29.3323C29.8729 28.5428 30.1361 27.4902 31.4519 27.7533C32.6362 28.1481 33.6888 29.0692 34.0836 30.2534C34.4783 31.4377 33.6888 32.2272 32.8993 32.8851C31.1887 34.2009 29.4782 33.8062 27.8992 33.0167C24.3464 31.0429 22.3727 27.7533 21.1884 23.9374C20.7937 22.49 21.32 21.3057 22.7674 20.5162C23.6885 19.9899 24.478 19.9899 25.0043 20.7794C25.7938 21.8321 27.5044 22.7531 26.057 24.4637C25.3991 25.2532 25.6622 26.0428 26.1886 26.7007C26.8465 27.8849 27.5044 29.0692 28.8202 29.7271Z" fill="#1F3336"/>
</svg>
